Comme-700.ufo
<glyph name="quotedbl" format="1">
  <advance width="854"/>
  <unicode hex="0022"/>
  <outline>
    <contour>
      <point x="188" y="902" type="line"/>
      <point x="325" y="902" type="line"/>
      <point x="370" y="1468" type="line"/>
      <point x="141" y="1468" type="line"/>
    </contour>
    <contour>
      <point x="522" y="902" type="line"/>
      <point x="658" y="902" type="line"/>
      <point x="705" y="1468" type="line"/>
      <point x="475" y="1468" type="line"/>
    </contour>
  </outline>
</glyph>
<glyph name="numbersign" format="1">
  <advance width="1135"/>
  <unicode hex="0023"/>
  <outline>
    <contour>
      <point x="165" y="-9" type="line"/>
      <point x="307" y="-9" type="line"/>
      <point x="392" y="453" type="line"/>
      <point x="629" y="453" type="line"/>
      <point x="544" y="-9" type="line"/>
      <point x="686" y="-9" type="line"/>
      <point x="772" y="453" type="line"/>
      <point x="965" y="453" type="line"/>
      <point x="981" y="568" type="line"/>
      <point x="794" y="568" type="line"/>
      <point x="871" y="979" type="line"/>
      <point x="1052" y="979" type="line"/>
      <point x="1069" y="1095" type="line"/>
      <point x="892" y="1095" type="line"/>
      <point x="963" y="1476" type="line"/>
      <point x="820" y="1476" type="line"/>
      <point x="750" y="1095" type="line"/>
      <point x="513" y="1095" type="line"/>
      <point x="584" y="1476" type="line"/>
      <point x="441" y="1476" type="line"/>
      <point x="370" y="1095" type="line"/>
      <point x="171" y="1095" type="line"/>
      <point x="155" y="979" type="line"/>
      <point x="349" y="979" type="line"/>
      <point x="272" y="568" type="line"/>
      <point x="86" y="568" type="line"/>
      <point x="69" y="453" type="line"/>
      <point x="251" y="453" type="line"/>
    </contour>
    <contour>
      <point x="415" y="568" type="line"/>
      <point x="492" y="979" type="line"/>
      <point x="728" y="979" type="line"/>
      <point x="650" y="568" type="line"/>
    </contour>
  </outline>
</glyph>
<glyph name="ampersand" format="1">
  <advance width="1420"/>
  <unicode hex="0026"/>
  <outline>
    <contour>
      <point x="1194" y="-30" type="line"/>
      <point x="1336" y="97" type="line"/>
      <point x="666" y="801" type="line"/>
      <point x="834" y="891"/>
      <point x="1000" y="1020"/>
      <point x="1000" y="1199" type="curve" smooth="yes"/>
      <point x="1000" y="1417"/>
      <point x="813" y="1511"/>
      <point x="622" y="1511" type="curve" smooth="yes"/>
      <point x="415" y="1511"/>
      <point x="232" y="1389"/>
      <point x="232" y="1172" type="curve" smooth="yes"/>
      <point x="232" y="1042"/>
      <point x="315" y="917"/>
      <point x="401" y="829" type="curve"/>
      <point x="241" y="737"/>
      <point x="86" y="621"/>
      <point x="95" y="404" type="curve" smooth="yes"/>
      <point x="103" y="133"/>
      <point x="296" y="-18"/>
      <point x="582" y="-18" type="curve" smooth="yes"/>
      <point x="1032" y="-18"/>
      <point x="1230" y="403"/>
      <point x="1381" y="673" type="curve"/>
      <point x="1236" y="772" type="line"/>
      <point x="1020" y="358"/>
      <point x="839" y="160"/>
      <point x="596" y="160" type="curve" smooth="yes"/>
      <point x="428" y="160"/>
      <point x="314" y="250"/>
      <point x="316" y="413" type="curve" smooth="yes"/>
      <point x="314" y="551"/>
      <point x="428" y="650"/>
      <point x="510" y="694" type="curve"/>
    </contour>
    <contour>
      <point x="568" y="919" type="curve"/>
      <point x="471" y="1031"/>
      <point x="443" y="1098"/>
      <point x="443" y="1190" type="curve" smooth="yes"/>
      <point x="443" y="1295"/>
      <point x="524" y="1349"/>
      <point x="627" y="1348" type="curve" smooth="yes"/>
      <point x="729" y="1346"/>
      <point x="793" y="1297"/>
      <point x="793" y="1194" type="curve" smooth="yes"/>
      <point x="793" y="1077"/>
      <point x="681" y="978"/>
    </contour>
  </outline>
</glyph>
<glyph name="comma" format="1">
  <advance width="655"/>
  <unicode hex="002C"/>
  <outline>
    <contour>
      <point x="174" y="-355" type="curve"/>
      <point x="328" y="-355" type="line"/>
      <point x="328" y="-355"/>
      <point x="463" y="197"/>
      <point x="463" y="211" type="curve"/>
      <point x="468" y="260" type="line"/>
      <point x="248" y="260" type="line"/>
      <point x="248" y="226"/>
      <point x="174" y="-355"/>
    </contour>
  </outline>
</glyph>
<glyph name="hyphen" format="1">
  <advance width="911"/>
  <unicode hex="002D"/>
  <outline>
    <contour>
      <point x="445" y="565" type="move" name="_mid"/>
    </contour>
    <contour>
      <point x="163" y="464" type="line"/>
      <point x="748" y="464" type="line"/>
      <point x="748" y="651" type="line"/>
      <point x="163" y="651" type="line"/>
    </contour>
  </outline>
</glyph>
<glyph name="period" format="1">
  <advance width="684"/>
  <unicode hex="002E"/>
  <outline>
    <contour>
      <point x="335" y="-6" type="curve" smooth="yes"/>
      <point x="419" y="-6"/>
      <point x="469" y="52"/>
      <point x="469" y="146" type="curve" smooth="yes"/>
      <point x="469" y="241"/>
      <point x="419" y="300"/>
      <point x="335" y="300" type="curve" smooth="yes"/>
      <point x="251" y="300"/>
      <point x="201" y="241"/>
      <point x="201" y="146" type="curve" smooth="yes"/>
      <point x="201" y="51"/>
      <point x="252" y="-6"/>
    </contour>
  </outline>
</glyph>
<glyph name="colon" format="1">
  <advance width="683"/>
  <unicode hex="003A"/>
  <outline>
    <contour>
      <point x="341" y="-6" type="curve" smooth="yes"/>
      <point x="424" y="-6"/>
      <point x="478" y="61"/>
      <point x="478" y="134" type="curve" smooth="yes"/>
      <point x="478" y="209"/>
      <point x="424" y="276"/>
      <point x="341" y="276" type="curve" smooth="yes"/>
      <point x="257" y="276"/>
      <point x="202" y="209"/>
      <point x="202" y="134" type="curve" smooth="yes"/>
      <point x="202" y="60"/>
      <point x="258" y="-6"/>
    </contour>
    <contour>
      <point x="340" y="819" type="curve" smooth="yes"/>
      <point x="423" y="819"/>
      <point x="477" y="886"/>
      <point x="477" y="959" type="curve" smooth="yes"/>
      <point x="477" y="1033"/>
      <point x="423" y="1101"/>
      <point x="340" y="1101" type="curve" smooth="yes"/>
      <point x="256" y="1101"/>
      <point x="201" y="1033"/>
      <point x="201" y="959" type="curve" smooth="yes"/>
      <point x="201" y="885"/>
      <point x="257" y="819"/>
    </contour>
  </outline>
</glyph>
<glyph name="semicolon" format="1">
  <advance width="740"/>
  <unicode hex="003B"/>
  <outline>
    <contour>
      <point x="223" y="-298" type="curve"/>
      <point x="358" y="-329" type="line"/>
      <point x="392" y="-253"/>
      <point x="479" y="73"/>
      <point x="484" y="242" type="curve"/>
      <point x="275" y="242" type="line"/>
      <point x="270" y="88"/>
      <point x="250" y="-145"/>
    </contour>
    <contour>
      <point x="379" y="808" type="curve" smooth="yes"/>
      <point x="462" y="808"/>
      <point x="515" y="874"/>
      <point x="515" y="948" type="curve" smooth="yes"/>
      <point x="515" y="1022"/>
      <point x="462" y="1090"/>
      <point x="379" y="1090" type="curve" smooth="yes"/>
      <point x="294" y="1090"/>
      <point x="240" y="1022"/>
      <point x="240" y="948" type="curve" smooth="yes"/>
      <point x="240" y="873"/>
      <point x="295" y="808"/>
    </contour>
  </outline>
</glyph>
<glyph name="question" format="1">
  <advance width="999"/>
  <unicode hex="003F"/>
  <outline>
    <contour>
      <point x="327" y="469" type="curve"/>
      <point x="407" y="454" type="line"/>
      <point x="560" y="785"/>
      <point x="848" y="828"/>
      <point x="848" y="1172" type="curve" smooth="yes"/>
      <point x="848" y="1405"/>
      <point x="667" y="1519"/>
      <point x="464" y="1519" type="curve" smooth="yes"/>
      <point x="343" y="1519"/>
      <point x="205" y="1479"/>
      <point x="115" y="1398" type="curve"/>
      <point x="177" y="1207" type="line"/>
      <point x="239" y="1244"/>
      <point x="334" y="1287"/>
      <point x="423" y="1287" type="curve" smooth="yes"/>
      <point x="540" y="1287"/>
      <point x="596" y="1219"/>
      <point x="596" y="1110" type="curve" smooth="yes"/>
      <point x="597" y="933"/>
      <point x="400" y="807"/>
    </contour>
    <contour>
      <point x="368" y="-17" type="curve" smooth="yes"/>
      <point x="457" y="-17"/>
      <point x="505" y="43"/>
      <point x="505" y="123" type="curve" smooth="yes"/>
      <point x="505" y="202"/>
      <point x="457" y="262"/>
      <point x="368" y="262" type="curve" smooth="yes"/>
      <point x="278" y="262"/>
      <point x="228" y="202"/>
      <point x="228" y="123" type="curve" smooth="yes"/>
      <point x="228" y="44"/>
      <point x="278" y="-17"/>
    </contour>
  </outline>
</glyph>
<glyph name="D" format="1">
  <advance width="1527"/>
  <unicode hex="0044"/>
  <outline>
    <contour>
      <point x="776" y="1456" type="move" name="top"/>
    </contour>
    <contour>
      <point x="774" y="0" type="move" name="bot"/>
    </contour>
    <contour>
      <point x="342" y="757" type="move" name="mid"/>
    </contour>
    <contour>
      <point x="187" y="8" type="line"/>
      <point x="1116" y="-96"/>
      <point x="1393" y="236"/>
      <point x="1393" y="752" type="curve" smooth="yes"/>
      <point x="1393" y="1303"/>
      <point x="1130" y="1541"/>
      <point x="187" y="1444" type="curve"/>
    </contour>
    <contour>
      <point x="391" y="1255" type="line"/>
      <point x="1015" y="1330"/>
      <point x="1113" y="1092"/>
      <point x="1113" y="747" type="curve" smooth="yes"/>
      <point x="1113" y="371"/>
      <point x="963" y="134"/>
      <point x="388" y="206" type="curve"/>
      <point x="475" y="126" type="line"/>
      <point x="475" y="1325" type="line"/>
    </contour>
  </outline>
</glyph>
<glyph name="H" format="1">
  <advance width="1568"/>
  <unicode hex="0048"/>
  <outline>
    <contour>
      <point x="796" y="1456" type="move" name="top"/>
    </contour>
    <contour>
      <point x="1091" y="1456" type="line"/>
      <point x="1091" y="809" type="line"/>
      <point x="1144" y="848" type="line"/>
      <point x="417" y="848" type="line"/>
      <point x="477" y="803" type="line"/>
      <point x="477" y="1456" type="line"/>
      <point x="189" y="1456" type="line"/>
      <point x="189" y="-3" type="line"/>
      <point x="477" y="-3" type="line"/>
      <point x="477" y="692" type="line"/>
      <point x="418" y="647" type="line"/>
      <point x="1149" y="647" type="line"/>
      <point x="1091" y="692" type="line"/>
      <point x="1091" y="-3" type="line"/>
      <point x="1379" y="-3" type="line"/>
      <point x="1379" y="1456" type="line"/>
    </contour>
  </outline>
</glyph>
<glyph name="Q" format="1">
  <advance width="1630"/>
  <unicode hex="0051"/>
  <outline>
    <contour>
      <point x="786" y="62" type="line"/>
      <point x="803" y="7"/>
      <point x="1117" y="-415"/>
      <point x="1206" y="-489" type="curve"/>
      <point x="1387" y="-344" type="line"/>
      <point x="1301" y="-270"/>
      <point x="1088" y="19"/>
      <point x="1038" y="97" type="curve"/>
    </contour>
    <component base="O"/>
  </outline>
</glyph>
<glyph name="R" format="1">
  <advance width="1418"/>
  <unicode hex="0052"/>
  <outline>
    <contour>
      <point x="733" y="1456" type="move" name="top"/>
    </contour>
    <contour>
      <point x="733" y="0" type="move" name="bot"/>
    </contour>
    <contour>
      <point x="187" y="0" type="line"/>
      <point x="475" y="0" type="line"/>
      <point x="475" y="693" type="line"/>
      <point x="411" y="633" type="line"/>
      <point x="794" y="633" type="line"/>
      <point x="723" y="682" type="line"/>
      <point x="1039" y="0" type="line"/>
      <point x="1345" y="0" type="line"/>
      <point x="1345" y="16" type="line"/>
      <point x="1012" y="700" type="line"/>
      <point x="983" y="645" type="line"/>
      <point x="1145" y="683"/>
      <point x="1299" y="803"/>
      <point x="1297" y="1046" type="curve" smooth="yes"/>
      <point x="1297" y="1387"/>
      <point x="1108" y="1517"/>
      <point x="187" y="1444" type="curve"/>
    </contour>
    <contour>
      <point x="475" y="758" type="line"/>
      <point x="475" y="1333" type="line"/>
      <point x="410" y="1268" type="line"/>
      <point x="941" y="1313"/>
      <point x="1037" y="1228"/>
      <point x="1036" y="1051" type="curve" smooth="yes"/>
      <point x="1036" y="887"/>
      <point x="943" y="810"/>
      <point x="701" y="811" type="curve" smooth="yes"/>
      <point x="430" y="811" type="line"/>
    </contour>
  </outline>
</glyph>
<glyph name="S" format="1">
  <advance width="1225"/>
  <unicode hex="0053"/>
  <outline>
    <contour>
      <point x="619" y="1466" type="move" name="top"/>
    </contour>
    <contour>
      <point x="614" y="0" type="move" name="bot"/>
    </contour>
    <contour>
      <point x="606" y="-20" type="curve" smooth="yes"/>
      <point x="881" y="-20"/>
      <point x="1122" y="104"/>
      <point x="1124" y="394" type="curve" smooth="yes"/>
      <point x="1126" y="658"/>
      <point x="993" y="739"/>
      <point x="767" y="829" type="curve" smooth="yes"/>
      <point x="579" y="905" type="line" smooth="yes"/>
      <point x="431" y="965"/>
      <point x="385" y="999"/>
      <point x="387" y="1103" type="curve" smooth="yes"/>
      <point x="390" y="1235"/>
      <point x="503" y="1278"/>
      <point x="629" y="1276" type="curve" smooth="yes"/>
      <point x="730" y="1275"/>
      <point x="842" y="1225"/>
      <point x="898" y="1133" type="curve"/>
      <point x="917" y="1133" type="line"/>
      <point x="1094" y="1248" type="line"/>
      <point x="1022" y="1365"/>
      <point x="856" y="1476"/>
      <point x="614" y="1476" type="curve" smooth="yes"/>
      <point x="354" y="1477"/>
      <point x="113" y="1380"/>
      <point x="104" y="1089" type="curve" smooth="yes"/>
      <point x="96" y="859"/>
      <point x="209" y="778"/>
      <point x="397" y="701" type="curve" smooth="yes"/>
      <point x="610" y="614" type="line" smooth="yes"/>
      <point x="799" y="536"/>
      <point x="842" y="495"/>
      <point x="840" y="378" type="curve" smooth="yes"/>
      <point x="837" y="243"/>
      <point x="735" y="191"/>
      <point x="598" y="191" type="curve" smooth="yes"/>
      <point x="481" y="191"/>
      <point x="358" y="257"/>
      <point x="285" y="339" type="curve"/>
      <point x="262" y="339" type="line"/>
      <point x="94" y="203" type="line"/>
      <point x="174" y="94"/>
      <point x="345" y="-20"/>
    </contour>
  </outline>
</glyph>
<glyph name="V" format="1">
  <advance width="1411"/>
  <unicode hex="0056"/>
  <outline>
    <contour>
      <point x="541" y="-3" type="line"/>
      <point x="845" y="-3" type="line"/>
      <point x="1369" y="1456" type="line"/>
      <point x="1082" y="1456" type="line"/>
      <point x="784" y="543" type="line"/>
      <point x="660" y="131" type="line"/>
      <point x="739" y="131" type="line"/>
      <point x="615" y="542" type="line"/>
      <point x="325" y="1456" type="line"/>
      <point x="42" y="1456" type="line"/>
    </contour>
  </outline>
</glyph>
<glyph name="X" format="1">
  <advance width="1356"/>
  <unicode hex="0058"/>
  <outline>
    <contour>
      <point x="1010" y="1456" type="line"/>
      <point x="659" y="906" type="line"/>
      <point x="530" y="775" type="line"/>
      <point x="18" y="-3" type="line"/>
      <point x="314" y="-3" type="line"/>
      <point x="708" y="591" type="line"/>
      <point x="830" y="716" type="line"/>
      <point x="1317" y="1456" type="line"/>
    </contour>
    <contour>
      <point x="48" y="1456" type="line"/>
      <point x="1018" y="-3" type="line"/>
      <point x="1334" y="-3" type="line"/>
      <point x="363" y="1456" type="line"/>
    </contour>
  </outline>
</glyph>
<glyph name="bracketleft" format="1">
  <advance width="823"/>
  <unicode hex="005B"/>
  <outline>
    <contour>
      <point x="222" y="-252" type="line"/>
      <point x="677" y="-252" type="line"/>
      <point x="677" y="-84" type="line"/>
      <point x="438" y="-84" type="line"/>
      <point x="438" y="1312" type="line"/>
      <point x="677" y="1312" type="line"/>
      <point x="677" y="1480" type="line"/>
      <point x="222" y="1480" type="line"/>
    </contour>
  </outline>
</glyph>
<glyph name="bracketright" format="1">
  <advance width="965"/>
  <unicode hex="005D"/>
  <outline>
    <contour>
      <point x="292" y="-252" type="line"/>
      <point x="747" y="-252" type="line"/>
      <point x="747" y="1480" type="line"/>
      <point x="292" y="1480" type="line"/>
      <point x="292" y="1312" type="line"/>
      <point x="531" y="1312" type="line"/>
      <point x="531" y="-84" type="line"/>
      <point x="292" y="-84" type="line"/>
    </contour>
  </outline>
</glyph>
<glyph name="asciicircum" format="1">
  <advance width="1315"/>
  <unicode hex="005E"/>
  <outline>
    <contour>
      <point x="616" y="1481" type="line"/>
      <point x="-5" y="81" type="line"/>
      <point x="207" y="81" type="line"/>
      <point x="650" y="1155" type="line"/>
      <point x="1116" y="81" type="line"/>
      <point x="1329" y="81" type="line"/>
      <point x="675" y="1481" type="line"/>
    </contour>
  </outline>
</glyph>
<glyph name="underscore" format="1">
  <advance width="1074"/>
  <unicode hex="005F"/>
  <outline>
    <contour>
      <point x="126" y="-275" type="line"/>
      <point x="1080" y="-275" type="line"/>
      <point x="1080" y="-111" type="line"/>
      <point x="126" y="-111" type="line"/>
    </contour>
  </outline>
</glyph>
<glyph name="grave" format="1">
  <advance width="1004"/>
  <unicode hex="0060"/>
  <outline>
    <contour>
      <point x="516" y="1073" type="move" name="_top"/>
    </contour>
    <contour>
      <point x="414" y="1194" type="line"/>
      <point x="573" y="1194" type="line"/>
      <point x="388" y="1586" type="line"/>
      <point x="90" y="1586" type="line"/>
    </contour>
  </outline>
</glyph>
<glyph name="b" format="1">
  <advance width="1238"/>
  <unicode hex="0062"/>
  <outline>
    <contour>
      <point x="718" y="1082" type="move" name="top"/>
    </contour>
    <contour>
      <point x="691" y="-20" type="curve" smooth="yes"/>
      <point x="987" y="-20"/>
      <point x="1142" y="211"/>
      <point x="1142" y="546" type="curve" smooth="yes"/>
      <point x="1142" y="871"/>
      <point x="1002" y="1110"/>
      <point x="703" y="1104" type="curve" smooth="yes"/>
      <point x="521" y="1102"/>
      <point x="397" y="974"/>
      <point x="365" y="763" type="curve"/>
      <point x="400" y="763" type="line"/>
      <point x="415" y="1129" type="line"/>
      <point x="415" y="1560" type="line"/>
      <point x="146" y="1540" type="line"/>
      <point x="146" y="0" type="line"/>
      <point x="379" y="0" type="line"/>
      <point x="397" y="205" type="line"/>
      <point x="350" y="202" type="line"/>
      <point x="385" y="103"/>
      <point x="494" y="-20"/>
    </contour>
    <contour>
      <point x="644" y="162" type="curve" smooth="yes"/>
      <point x="533" y="162"/>
      <point x="461" y="203"/>
      <point x="411" y="270" type="curve"/>
      <point x="411" y="562" type="line" smooth="yes"/>
      <point x="411" y="811"/>
      <point x="504" y="922"/>
      <point x="661" y="922" type="curve" smooth="yes"/>
      <point x="806" y="922"/>
      <point x="869" y="799"/>
      <point x="869" y="546" type="curve" smooth="yes"/>
      <point x="869" y="289"/>
      <point x="787" y="162"/>
    </contour>
  </outline>
</glyph>
<glyph name="d" format="1">
  <advance width="1233"/>
  <unicode hex="0064"/>
  <outline>
    <contour>
      <point x="494" y="1082" type="move" name="top"/>
    </contour>
    <contour>
      <point x="1068" y="1147" type="move" name="caron.alt"/>
    </contour>
    <contour>
      <point x="948" y="1302" type="move" name="mid"/>
    </contour>
    <contour>
      <point x="825" y="1540" type="line"/>
      <point x="825" y="1145" type="line"/>
      <point x="832" y="879" type="line"/>
      <point x="888" y="883" type="line"/>
      <point x="853" y="982"/>
      <point x="749" y="1104"/>
      <point x="552" y="1103" type="curve" smooth="yes"/>
      <point x="256" y="1104"/>
      <point x="96" y="876"/>
      <point x="96" y="539" type="curve"/>
      <point x="96" y="214"/>
      <point x="250" y="-22"/>
      <point x="549" y="-20" type="curve" smooth="yes"/>
      <point x="736" y="-20"/>
      <point x="863" y="116"/>
      <point x="897" y="279" type="curve"/>
      <point x="841" y="267" type="line"/>
      <point x="858" y="0" type="line"/>
      <point x="1096" y="0" type="line"/>
      <point x="1096" y="1560" type="line"/>
    </contour>
    <contour>
      <point x="600" y="163" type="curve" smooth="yes"/>
      <point x="455" y="163"/>
      <point x="369" y="275"/>
      <point x="369" y="540" type="curve" smooth="yes"/>
      <point x="369" y="817"/>
      <point x="463" y="923"/>
      <point x="606" y="923" type="curve" smooth="yes"/>
      <point x="707" y="923"/>
      <point x="782" y="881"/>
      <point x="827" y="819" type="curve"/>
      <point x="827" y="269" type="line"/>
      <point x="778" y="199"/>
      <point x="697" y="163"/>
    </contour>
  </outline>
</glyph>
<glyph name="h" format="1">
  <advance width="1235"/>
  <unicode hex="0068"/>
  <outline>
    <contour>
      <point x="595" y="1460" type="move" name="top"/>
    </contour>
    <contour>
      <point x="327" y="1265" type="move" name="mid"/>
    </contour>
    <contour>
      <point x="146" y="0" type="line"/>
      <point x="417" y="0" type="line"/>
      <point x="417" y="608" type="line" smooth="yes"/>
      <point x="417" y="792"/>
      <point x="488" y="922"/>
      <point x="656" y="922" type="curve" smooth="yes"/>
      <point x="779" y="922"/>
      <point x="830" y="844"/>
      <point x="830" y="644" type="curve" smooth="yes"/>
      <point x="830" y="0" type="line"/>
      <point x="1102" y="0" type="line"/>
      <point x="1102" y="672" type="line" smooth="yes"/>
      <point x="1102" y="943"/>
      <point x="984" y="1104"/>
      <point x="747" y="1104" type="curve" smooth="yes"/>
      <point x="532" y="1104"/>
      <point x="419" y="971"/>
      <point x="373" y="755" type="curve"/>
      <point x="408" y="750" type="line"/>
      <point x="417" y="1153" type="line"/>
      <point x="417" y="1560" type="line"/>
      <point x="146" y="1540" type="line"/>
    </contour>
  </outline>
</glyph>
<glyph name="k" format="1">
  <advance width="1158"/>
  <unicode hex="006B"/>
  <outline>
    <contour>
      <point x="621" y="0" type="move" name="bot"/>
    </contour>
    <contour>
      <point x="145" y="0" type="line"/>
      <point x="416" y="0" type="line"/>
      <point x="416" y="449" type="line"/>
      <point x="383" y="382" type="line"/>
      <point x="526" y="514" type="line"/>
      <point x="478" y="520" type="line"/>
      <point x="856" y="0" type="line"/>
      <point x="1134" y="0" type="line"/>
      <point x="1134" y="28" type="line"/>
      <point x="668" y="645" type="line"/>
      <point x="666" y="564" type="line"/>
      <point x="1110" y="1061" type="line"/>
      <point x="1110" y="1082" type="line"/>
      <point x="821" y="1082" type="line"/>
      <point x="377" y="589" type="line"/>
      <point x="409" y="578" type="line"/>
      <point x="416" y="802" type="line"/>
      <point x="416" y="1560" type="line"/>
      <point x="145" y="1540" type="line"/>
    </contour>
  </outline>
</glyph>
<glyph name="l" format="1">
  <advance width="704"/>
  <unicode hex="006C"/>
  <outline>
    <contour>
      <point x="331" y="1528" type="move" name="top"/>
    </contour>
    <contour>
      <point x="307" y="843" type="move" name="mid"/>
    </contour>
    <contour>
      <point x="548" y="-9" type="curve" smooth="yes"/>
      <point x="632" y="-7" type="line"/>
      <point x="645" y="167" type="line"/>
      <point x="541" y="175" type="line" smooth="yes"/>
      <point x="442" y="182"/>
      <point x="422" y="210"/>
      <point x="422" y="317" type="curve" smooth="yes"/>
      <point x="422" y="1560" type="line"/>
      <point x="151" y="1540" type="line"/>
      <point x="151" y="336" type="line" smooth="yes"/>
      <point x="151" y="60"/>
      <point x="269" y="-17"/>
    </contour>
  </outline>
</glyph>
<glyph name="n" format="1">
  <advance width="1234"/>
  <unicode hex="006E"/>
  <outline>
    <contour>
      <point x="698" y="1082" type="move" name="top"/>
    </contour>
    <contour>
      <point x="629" y="0" type="move" name="bot"/>
    </contour>
    <contour>
      <point x="146" y="0" type="line"/>
      <point x="417" y="0" type="line"/>
      <point x="417" y="617" type="line" smooth="yes"/>
      <point x="417" y="805"/>
      <point x="498" y="922"/>
      <point x="657" y="922" type="curve" smooth="yes"/>
      <point x="784" y="922"/>
      <point x="830" y="833"/>
      <point x="830" y="646" type="curve" smooth="yes"/>
      <point x="830" y="0" type="line"/>
      <point x="1101" y="0" type="line"/>
      <point x="1101" y="662" type="line" smooth="yes"/>
      <point x="1101" y="942"/>
      <point x="982" y="1104"/>
      <point x="739" y="1104" type="curve" smooth="yes"/>
      <point x="499" y="1104"/>
      <point x="400" y="939"/>
      <point x="358" y="779" type="curve"/>
      <point x="410" y="755" type="line"/>
      <point x="377" y="1082" type="line"/>
      <point x="146" y="1082" type="line"/>
    </contour>
  </outline>
</glyph>
<glyph name="p" format="1">
  <advance width="1234"/>
  <unicode hex="0070"/>
  <outline>
    <contour>
      <point x="657" y="1082" type="move" name="top"/>
    </contour>
    <contour>
      <point x="142" y="-467" type="line"/>
      <point x="410" y="-467" type="line"/>
      <point x="410" y="-61" type="line"/>
      <point x="402" y="208" type="line"/>
      <point x="343" y="204" type="line"/>
      <point x="379" y="96"/>
      <point x="489" y="-20"/>
      <point x="689" y="-20" type="curve" smooth="yes"/>
      <point x="979" y="-20"/>
      <point x="1138" y="214"/>
      <point x="1138" y="545" type="curve" smooth="yes"/>
      <point x="1138" y="870"/>
      <point x="1000" y="1104"/>
      <point x="709" y="1104" type="curve" smooth="yes"/>
      <point x="498" y="1104"/>
      <point x="389" y="957"/>
      <point x="364" y="769" type="curve"/>
      <point x="397" y="767" type="line"/>
      <point x="378" y="1082" type="line"/>
      <point x="142" y="1082" type="line"/>
    </contour>
    <contour>
      <point x="634" y="162" type="curve" smooth="yes"/>
      <point x="533" y="162"/>
      <point x="457" y="203"/>
      <point x="407" y="270" type="curve"/>
      <point x="407" y="663" type="line" smooth="yes"/>
      <point x="423" y="817"/>
      <point x="499" y="922"/>
      <point x="651" y="922" type="curve" smooth="yes"/>
      <point x="796" y="922"/>
      <point x="865" y="799"/>
      <point x="865" y="546" type="curve" smooth="yes"/>
      <point x="865" y="269"/>
      <point x="777" y="162"/>
    </contour>
  </outline>
</glyph>
<glyph name="q" format="1">
  <advance width="1232"/>
  <unicode hex="0071"/>
  <outline>
    <contour>
      <point x="822" y="-467" type="line"/>
      <point x="1090" y="-467" type="line"/>
      <point x="1090" y="1082" type="line"/>
      <point x="854" y="1082" type="line"/>
      <point x="838" y="804" type="line"/>
      <point x="893" y="803" type="line"/>
      <point x="865" y="950"/>
      <point x="764" y="1104"/>
      <point x="546" y="1104" type="curve" smooth="yes"/>
      <point x="254" y="1104"/>
      <point x="94" y="872"/>
      <point x="94" y="547" type="curve" smooth="yes"/>
      <point x="94" y="212"/>
      <point x="248" y="-21"/>
      <point x="551" y="-20" type="curve" smooth="yes"/>
      <point x="712" y="-20"/>
      <point x="842" y="74"/>
      <point x="889" y="204" type="curve"/>
      <point x="829" y="207" type="line"/>
      <point x="822" y="-37" type="line"/>
    </contour>
    <contour>
      <point x="605" y="162" type="curve" smooth="yes"/>
      <point x="460" y="162"/>
      <point x="367" y="267"/>
      <point x="367" y="548" type="curve" smooth="yes"/>
      <point x="367" y="808"/>
      <point x="453" y="922"/>
      <point x="597" y="922" type="curve" smooth="yes"/>
      <point x="695" y="922"/>
      <point x="774" y="881"/>
      <point x="825" y="804" type="curve"/>
      <point x="825" y="261" type="line"/>
      <point x="780" y="201"/>
      <point x="705" y="162"/>
    </contour>
  </outline>
</glyph>
<glyph name="s" format="1">
  <advance width="993"/>
  <unicode hex="0073"/>
  <outline>
    <contour>
      <point x="496" y="1082" type="move" name="top"/>
    </contour>
    <contour>
      <point x="498" y="1" type="move" name="bot"/>
    </contour>
    <contour>
      <point x="215" y="304" type="line"/>
      <point x="65" y="193" type="line"/>
      <point x="138" y="52"/>
      <point x="328" y="-20"/>
      <point x="509" y="-20" type="curve" smooth="yes"/>
      <point x="749" y="-20"/>
      <point x="928" y="85"/>
      <point x="930" y="305" type="curve" smooth="yes"/>
      <point x="931" y="435"/>
      <point x="904" y="538"/>
      <point x="652" y="626" type="curve" smooth="yes"/>
      <point x="520" y="672" type="line" smooth="yes"/>
      <point x="399" y="713"/>
      <point x="381" y="754"/>
      <point x="381" y="809" type="curve" smooth="yes"/>
      <point x="381" y="879"/>
      <point x="438" y="924"/>
      <point x="542" y="922" type="curve" smooth="yes"/>
      <point x="626" y="920"/>
      <point x="704" y="880"/>
      <point x="748" y="811" type="curve"/>
      <point x="760" y="811" type="line"/>
      <point x="907" y="916" type="line"/>
      <point x="841" y="1050"/>
      <point x="671" y="1104"/>
      <point x="513" y="1104" type="curve" smooth="yes"/>
      <point x="250" y="1104"/>
      <point x="107" y="987"/>
      <point x="106" y="802" type="curve" smooth="yes"/>
      <point x="104" y="654"/>
      <point x="167" y="563"/>
      <point x="400" y="483" type="curve" smooth="yes"/>
      <point x="516" y="444" type="line" smooth="yes"/>
      <point x="663" y="394"/>
      <point x="679" y="352"/>
      <point x="676" y="291" type="curve" smooth="yes"/>
      <point x="672" y="212"/>
      <point x="617" y="163"/>
      <point x="516" y="163" type="curve" smooth="yes"/>
      <point x="426" y="163"/>
      <point x="311" y="196"/>
      <point x="237" y="304" type="curve"/>
    </contour>
  </outline>
</glyph>
<glyph name="v" format="1">
  <advance width="1091"/>
  <unicode hex="0076"/>
  <outline>
    <contour>
      <point x="415" y="0" type="line"/>
      <point x="686" y="0" type="line"/>
      <point x="1060" y="1082" type="line"/>
      <point x="788" y="1082" type="line"/>
      <point x="642" y="579" type="line"/>
      <point x="537" y="210" type="line"/>
      <point x="586" y="210" type="line"/>
      <point x="469" y="581" type="line"/>
      <point x="311" y="1082" type="line"/>
      <point x="34" y="1082" type="line"/>
    </contour>
  </outline>
</glyph>
<glyph name="w" format="1">
  <advance width="1522"/>
  <unicode hex="0077"/>
  <outline>
    <contour>
      <point x="771" y="1082" type="move" name="top"/>
    </contour>
    <contour>
      <point x="1272" y="1082" type="line"/>
      <point x="1084" y="164" type="line"/>
      <point x="1139" y="164" type="line"/>
      <point x="898" y="1082" type="line"/>
      <point x="643" y="1082" type="line"/>
      <point x="396" y="164" type="line"/>
      <point x="449" y="164" type="line"/>
      <point x="264" y="1082" type="line"/>
      <point x="13" y="1082" type="line"/>
      <point x="290" y="-3" type="line"/>
      <point x="531" y="-3" type="line"/>
      <point x="801" y="920" type="line"/>
      <point x="748" y="920" type="line"/>
      <point x="984" y="-3" type="line"/>
      <point x="1234" y="-3" type="line"/>
      <point x="1507" y="1082" type="line"/>
    </contour>
  </outline>
</glyph>
<glyph name="x" format="1">
  <advance width="1078"/>
  <unicode hex="0078"/>
  <outline>
    <contour>
      <point x="784" y="1082" type="line"/>
      <point x="514" y="674" type="line"/>
      <point x="423" y="581" type="line"/>
      <point x="24" y="-3" type="line"/>
      <point x="284" y="-3" type="line"/>
      <point x="581" y="426" type="line"/>
      <point x="669" y="517" type="line"/>
      <point x="1041" y="1082" type="line"/>
    </contour>
    <contour>
      <point x="44" y="1082" type="line"/>
      <point x="763" y="-3" type="line"/>
      <point x="1055" y="-3" type="line"/>
      <point x="333" y="1082" type="line"/>
    </contour>
  </outline>
</glyph>
<glyph name="y" format="1">
  <advance width="1134"/>
  <unicode hex="0079"/>
  <outline>
    <contour>
      <point x="567" y="1082" type="move" name="top"/>
    </contour>
    <contour>
      <point x="1117" y="1082" type="line"/>
      <point x="864" y="1082" type="line"/>
      <point x="541" y="272" type="line"/>
      <point x="472" y="165" type="line"/>
      <point x="255" y="-358" type="line"/>
      <point x="476" y="-434" type="line"/>
    </contour>
    <contour>
      <point x="637" y="224" type="line"/>
      <point x="275" y="1082" type="line"/>
      <point x="5" y="1082" type="line"/>
      <point x="510" y="-48" type="line"/>
    </contour>
  </outline>
</glyph>
<glyph name="braceleft" format="1">
  <advance width="911"/>
  <unicode hex="007B"/>
  <outline>
    <contour>
      <point x="782" y="-290" type="curve"/>
      <point x="782" y="-132" type="line"/>
      <point x="644" y="-130"/>
      <point x="610" y="-110"/>
      <point x="610" y="60" type="curve" smooth="yes"/>
      <point x="610" y="352" type="line" smooth="yes"/>
      <point x="610" y="492"/>
      <point x="580" y="594"/>
      <point x="411" y="625" type="curve"/>
      <point x="580" y="657"/>
      <point x="610" y="759"/>
      <point x="610" y="899" type="curve" smooth="yes"/>
      <point x="610" y="1191" type="line" smooth="yes"/>
      <point x="610" y="1361"/>
      <point x="644" y="1381"/>
      <point x="782" y="1383" type="curve"/>
      <point x="782" y="1541" type="line"/>
      <point x="537" y="1541"/>
      <point x="399" y="1503"/>
      <point x="399" y="1238" type="curve" smooth="yes"/>
      <point x="399" y="955" type="line" smooth="yes"/>
      <point x="399" y="796"/>
      <point x="393" y="715"/>
      <point x="190" y="715" type="curve"/>
      <point x="190" y="535" type="line"/>
      <point x="394" y="535"/>
      <point x="399" y="454"/>
      <point x="399" y="295" type="curve" smooth="yes"/>
      <point x="399" y="13" type="line" smooth="yes"/>
      <point x="399" y="-252"/>
      <point x="537" y="-290"/>
    </contour>
  </outline>
</glyph>
<glyph name="yen" format="1">
  <advance width="1356"/>
  <unicode hex="00A5"/>
  <outline>
    <contour>
      <point x="222" y="288" type="line"/>
      <point x="1108" y="288" type="line"/>
      <point x="1108" y="414" type="line"/>
      <point x="222" y="414" type="line"/>
    </contour>
    <contour>
      <point x="222" y="542" type="line"/>
      <point x="1108" y="542" type="line"/>
      <point x="1108" y="668" type="line"/>
      <point x="222" y="668" type="line"/>
    </contour>
    <component base="Y"/>
  </outline>
</glyph>
<glyph name="brokenbar" format="1">
  <advance width="713"/>
  <unicode hex="00A6"/>
  <outline>
    <contour>
      <point x="260" y="414" type="line"/>
      <point x="260" y="-308" type="line"/>
      <point x="439" y="-308" type="line"/>
      <point x="439" y="414" type="line"/>
    </contour>
    <contour>
      <point x="260" y="1506" type="line"/>
      <point x="260" y="786" type="line"/>
      <point x="439" y="786" type="line"/>
      <point x="439" y="1506" type="line"/>
    </contour>
  </outline>
</glyph>
<glyph name="section" format="1">
  <advance width="1049"/>
  <unicode hex="00A7"/>
  <outline>
    <contour>
      <point x="520" y="-20" type="curve" smooth="yes"/>
      <point x="726" y="-14"/>
      <point x="886" y="77"/>
      <point x="886" y="323" type="curve" smooth="yes"/>
      <point x="886" y="409"/>
      <point x="860" y="479"/>
      <point x="796" y="536" type="curve"/>
      <point x="847" y="586"/>
      <point x="887" y="650"/>
      <point x="891" y="738" type="curve" smooth="yes"/>
      <point x="896" y="881"/>
      <point x="845" y="966"/>
      <point x="637" y="1043" type="curve" smooth="yes"/>
      <point x="405" y="1131"/>
      <point x="383" y="1157"/>
      <point x="383" y="1222" type="curve" smooth="yes"/>
      <point x="383" y="1295"/>
      <point x="436" y="1335"/>
      <point x="552" y="1335" type="curve" smooth="yes"/>
      <point x="647" y="1335"/>
      <point x="745" y="1303"/>
      <point x="807" y="1270" type="curve"/>
      <point x="858" y="1425" type="line"/>
      <point x="760" y="1484"/>
      <point x="640" y="1515"/>
      <point x="531" y="1515" type="curve" smooth="yes"/>
      <point x="339" y="1515"/>
      <point x="168" y="1431"/>
      <point x="158" y="1225" type="curve" smooth="yes"/>
      <point x="153" y="1119"/>
      <point x="191" y="1042"/>
      <point x="283" y="975" type="curve"/>
      <point x="215" y="919"/>
      <point x="165" y="845"/>
      <point x="165" y="760" type="curve" smooth="yes"/>
      <point x="165" y="630"/>
      <point x="237" y="557"/>
      <point x="422" y="487" type="curve" smooth="yes"/>
      <point x="643" y="405"/>
      <point x="676" y="362"/>
      <point x="672" y="296" type="curve" smooth="yes"/>
      <point x="670" y="215"/>
      <point x="619" y="166"/>
      <point x="530" y="162" type="curve" smooth="yes"/>
      <point x="414" y="154"/>
      <point x="273" y="204"/>
      <point x="180" y="254" type="curve"/>
      <point x="180" y="62" type="line"/>
      <point x="282" y="10"/>
      <point x="412" y="-23"/>
    </contour>
    <contour>
      <point x="672" y="610" type="curve"/>
      <point x="657" y="616"/>
      <point x="607" y="638"/>
      <point x="535" y="660" type="curve" smooth="yes"/>
      <point x="390" y="719"/>
      <point x="353" y="741"/>
      <point x="353" y="806" type="curve" smooth="yes"/>
      <point x="353" y="853"/>
      <point x="375" y="890"/>
      <point x="408" y="907" type="curve"/>
      <point x="413" y="905"/>
      <point x="466" y="884"/>
      <point x="556" y="850" type="curve" smooth="yes"/>
      <point x="674" y="805"/>
      <point x="709" y="759"/>
      <point x="708" y="703" type="curve" smooth="yes"/>
      <point x="708" y="665"/>
      <point x="694" y="633"/>
    </contour>
  </outline>
</glyph>
<glyph name="uni00B5" format="1">
  <advance width="1221"/>
  <unicode hex="00B5"/>
  <outline>
    <contour>
      <point x="126" y="620" type="line"/>
      <point x="126" y="-308" type="line"/>
      <point x="397" y="-308" type="line"/>
      <point x="397" y="620" type="line"/>
    </contour>
    <component base="u"/>
  </outline>
</glyph>
<glyph name="ae" format="1">
  <advance width="1705"/>
  <unicode hex="00E6"/>
  <outline>
    <contour>
      <point x="1054" y="1082" type="move" name="top"/>
    </contour>
    <contour>
      <point x="1229" y="-20" type="curve" smooth="yes"/>
      <point x="1397" y="-20"/>
      <point x="1543" y="30"/>
      <point x="1629" y="101" type="curve"/>
      <point x="1575" y="257" type="line"/>
      <point x="1488" y="205"/>
      <point x="1393" y="162"/>
      <point x="1261" y="162" type="curve" smooth="yes"/>
      <point x="1112" y="162"/>
      <point x="982" y="217"/>
      <point x="961" y="453" type="curve"/>
      <point x="1347" y="440"/>
      <point x="1635" y="469"/>
      <point x="1630" y="755" type="curve" smooth="yes"/>
      <point x="1627" y="923"/>
      <point x="1505" y="1102"/>
      <point x="1230" y="1102" type="curve" smooth="yes"/>
      <point x="1065" y="1102"/>
      <point x="946" y="1040"/>
      <point x="872" y="917" type="curve"/>
      <point x="832" y="1042"/>
      <point x="712" y="1101"/>
      <point x="542" y="1101" type="curve" smooth="yes"/>
      <point x="380" y="1101"/>
      <point x="237" y="1057"/>
      <point x="94" y="975" type="curve"/>
      <point x="163" y="813" type="line"/>
      <point x="286" y="878"/>
      <point x="414" y="909"/>
      <point x="513" y="909" type="curve" smooth="yes"/>
      <point x="644" y="909"/>
      <point x="722" y="855"/>
      <point x="722" y="708" type="curve" smooth="yes"/>
      <point x="722" y="621" type="line"/>
      <point x="678" y="626"/>
      <point x="539" y="628"/>
      <point x="513" y="628" type="curve" smooth="yes"/>
      <point x="250" y="629"/>
      <point x="65" y="525"/>
      <point x="65" y="300" type="curve" smooth="yes"/>
      <point x="65" y="89"/>
      <point x="200" y="-14"/>
      <point x="399" y="-18" type="curve"/>
      <point x="581" y="-18"/>
      <point x="744" y="37"/>
      <point x="831" y="173" type="curve"/>
      <point x="906" y="56"/>
      <point x="1023" y="-20"/>
    </contour>
    <contour>
      <point x="486" y="143" type="curve" smooth="yes"/>
      <point x="406" y="139"/>
      <point x="309" y="181"/>
      <point x="311" y="305" type="curve" smooth="yes"/>
      <point x="312" y="425"/>
      <point x="390" y="489"/>
      <point x="562" y="489" type="curve" smooth="yes"/>
      <point x="585" y="489"/>
      <point x="682" y="486"/>
      <point x="724" y="481" type="curve"/>
      <point x="724" y="465"/>
      <point x="734" y="340"/>
      <point x="744" y="319" type="curve" smooth="yes"/>
      <point x="730" y="220"/>
      <point x="636" y="150"/>
    </contour>
    <contour>
      <point x="963" y="611" type="curve"/>
      <point x="977" y="832"/>
      <point x="1093" y="926"/>
      <point x="1235" y="926" type="curve" smooth="yes"/>
      <point x="1380" y="926"/>
      <point x="1430" y="849"/>
      <point x="1432" y="771" type="curve" smooth="yes"/>
      <point x="1435" y="674"/>
      <point x="1407" y="587"/>
    </contour>
  </outline>
</glyph>
<glyph name="oslash" format="1">
  <advance width="1226"/>
  <unicode hex="00F8"/>
  <outline>
    <contour>
      <point x="162" y="-125" type="line"/>
      <point x="233" y="-171" type="line"/>
      <point x="968" y="1205" type="line"/>
      <point x="890" y="1251" type="line"/>
    </contour>
    <component base="o" xOffset="-51"/>
  </outline>
</glyph>
<glyph name="Hbar" format="1">
  <advance width="1538"/>
  <unicode hex="0126"/>
  <outline>
    <contour>
      <point x="63" y="1285" type="line"/>
      <point x="63" y="1122" type="line"/>
      <point x="1468" y="1122" type="line"/>
      <point x="1468" y="1285" type="line"/>
    </contour>
    <component base="H"/>
  </outline>
</glyph>
<glyph name="kgreenlandic" format="1">
  <advance width="1139"/>
  <unicode hex="0138"/>
  <outline>
    <contour>
      <point x="130" y="0" type="line"/>
      <point x="355" y="0" type="line"/>
      <point x="355" y="439" type="line"/>
      <point x="300" y="322" type="line"/>
      <point x="496" y="511" type="line"/>
      <point x="423" y="511" type="line"/>
      <point x="821" y="0" type="line"/>
      <point x="1076" y="0" type="line"/>
      <point x="1076" y="15" type="line"/>
      <point x="583" y="639" type="line"/>
      <point x="573" y="532" type="line"/>
      <point x="1048" y="1061" type="line"/>
      <point x="1048" y="1082" type="line"/>
      <point x="787" y="1082" type="line"/>
      <point x="307" y="536" type="line"/>
      <point x="348" y="537" type="line"/>
      <point x="355" y="803" type="line"/>
      <point x="355" y="1082" type="line"/>
      <point x="130" y="1082" type="line"/>
    </contour>
  </outline>
</glyph>
<glyph name="Eng" format="1">
  <advance width="1577"/>
  <unicode hex="014A"/>
  <outline>
    <contour>
      <point x="1128" y="992" type="line"/>
      <point x="1128" y="-10" type="line"/>
      <point x="1128" y="-231"/>
      <point x="1088" y="-287"/>
      <point x="790" y="-287" type="curve"/>
      <point x="804" y="-470" type="line"/>
      <point x="1241" y="-460"/>
      <point x="1393" y="-348"/>
      <point x="1393" y="-31" type="curve"/>
      <point x="1393" y="992" type="line"/>
    </contour>
    <component base="N"/>
  </outline>
</glyph>
<glyph name="eng" format="1">
  <advance width="1221"/>
  <unicode hex="014B"/>
  <outline>
    <contour>
      <point x="822" y="154" type="line"/>
      <point x="822" y="-15" type="line"/>
      <point x="822" y="-238"/>
      <point x="787" y="-287"/>
      <point x="490" y="-287" type="curve"/>
      <point x="504" y="-470" type="line"/>
      <point x="956" y="-460"/>
      <point x="1093" y="-353"/>
      <point x="1093" y="-36" type="curve"/>
      <point x="1093" y="154" type="line"/>
    </contour>
    <component base="n"/>
  </outline>
</glyph>
<glyph name="apostrophemod" format="1">
  <advance width="647"/>
  <unicode hex="02BC"/>
  <outline>
    <contour>
      <point x="79" y="1123" type="curve"/>
      <point x="279" y="1123" type="line"/>
      <point x="279" y="1123"/>
      <point x="384" y="1439"/>
      <point x="409" y="1577" type="curve"/>
      <point x="173" y="1577" type="line"/>
      <point x="165" y="1507"/>
      <point x="79" y="1123"/>
    </contour>
  </outline>
</glyph>
<glyph name="caron" format="1">
  <advance width="929"/>
  <unicode hex="02C7"/>
  <outline>
    <contour>
      <point x="456" y="1082" type="move" name="_top"/>
    </contour>
    <contour>
      <point x="316" y="1278" type="line"/>
      <point x="565" y="1278" type="line"/>
      <point x="770" y="1650" type="line"/>
      <point x="555" y="1650" type="line"/>
      <point x="441" y="1432" type="line"/>
      <point x="326" y="1650" type="line"/>
      <point x="111" y="1650" type="line"/>
    </contour>
  </outline>
</glyph>
<glyph name="dotaccent" format="1">
  <advance width="628"/>
  <unicode hex="02D9"/>
  <outline>
    <contour>
      <point x="329" y="1082" type="move" name="_top"/>
    </contour>
    <contour>
      <point x="482" y="1417" type="curve" smooth="yes"/>
      <point x="482" y="1507"/>
      <point x="428" y="1565"/>
      <point x="330" y="1565" type="curve" smooth="yes"/>
      <point x="231" y="1565"/>
      <point x="178" y="1507"/>
      <point x="178" y="1417" type="curve" smooth="yes"/>
      <point x="178" y="1323"/>
      <point x="231" y="1264"/>
      <point x="330" y="1264" type="curve" smooth="yes"/>
      <point x="428" y="1264"/>
      <point x="482" y="1323"/>
    </contour>
  </outline>
</glyph>
<glyph name="ring" format="1">
  <advance width="764"/>
  <unicode hex="02DA"/>
  <outline>
    <contour>
      <point x="364" y="1073" type="move" name="_top"/>
    </contour>
    <contour>
      <point x="365" y="1415" type="curve" smooth="yes"/>
      <point x="304" y="1415"/>
      <point x="272" y="1463"/>
      <point x="272" y="1520" type="curve" smooth="yes"/>
      <point x="272" y="1573"/>
      <point x="307" y="1624"/>
      <point x="365" y="1624" type="curve" smooth="yes"/>
      <point x="424" y="1624"/>
      <point x="461" y="1573"/>
      <point x="461" y="1520" type="curve" smooth="yes"/>
      <point x="461" y="1464"/>
      <point x="424" y="1415"/>
    </contour>
    <contour>
      <point x="365" y="1316" type="curve" smooth="yes"/>
      <point x="493" y="1316"/>
      <point x="577" y="1411"/>
      <point x="577" y="1521" type="curve" smooth="yes"/>
      <point x="577" y="1629"/>
      <point x="495" y="1724"/>
      <point x="365" y="1724" type="curve" smooth="yes"/>
      <point x="237" y="1724"/>
      <point x="156" y="1631"/>
      <point x="156" y="1521" type="curve" smooth="yes"/>
      <point x="156" y="1411"/>
      <point x="238" y="1316"/>
    </contour>
  </outline>
</glyph>
<glyph name="commaaccent" format="1">
  <advance width="617"/>
  <unicode hex="0326"/>
  <outline>
    <contour>
      <point x="338" y="0" type="move" name="_bot"/>
    </contour>
    <contour>
      <point x="160" y="-548" type="curve"/>
      <point x="331" y="-548" type="line"/>
      <point x="331" y="-548"/>
      <point x="453" y="-127"/>
      <point x="452" y="-104" type="curve"/>
      <point x="225" y="-104" type="line"/>
      <point x="225" y="-141"/>
      <point x="160" y="-548"/>
    </contour>
  </outline>
</glyph>
<glyph name="emdash" format="1">
  <advance width="1998"/>
  <unicode hex="2014"/>
  <outline>
    <contour>
      <point x="-26" y="482" type="line"/>
      <point x="2039" y="482" type="line"/>
      <point x="2039" y="659" type="line"/>
      <point x="-26" y="659" type="line"/>
    </contour>
  </outline>
</glyph>
<glyph name="quoteleft" format="1">
  <advance width="738"/>
  <unicode hex="2018"/>
  <outline>
    <contour>
      <point x="375" y="981" type="line"/>
      <point x="420" y="1463" type="line"/>
      <point x="271" y="1463" type="line"/>
      <point x="193" y="981" type="line"/>
    </contour>
  </outline>
</glyph>
<glyph name="quotedblleft" format="1">
  <advance width="907"/>
  <unicode hex="201C"/>
  <outline>
    <contour>
      <point x="110" y="961" type="line"/>
      <point x="331" y="961" type="line"/>
      <point x="425" y="1476" type="line"/>
      <point x="271" y="1476" type="line"/>
    </contour>
    <contour>
      <point x="442" y="962" type="line"/>
      <point x="660" y="962" type="line"/>
      <point x="748" y="1476" type="line"/>
      <point x="589" y="1476" type="line"/>
    </contour>
  </outline>
</glyph>
<glyph name="quotedblright" format="1">
  <advance width="880"/>
  <unicode hex="201D"/>
  <outline>
    <contour>
      <point x="149" y="902" type="line"/>
      <point x="308" y="902" type="line"/>
      <point x="458" y="1472" type="line"/>
      <point x="239" y="1472" type="line"/>
    </contour>
    <contour>
      <point x="471" y="902" type="line"/>
      <point x="625" y="902" type="line"/>
      <point x="788" y="1472" type="line"/>
      <point x="566" y="1472" type="line"/>
    </contour>
  </outline>
</glyph>
<glyph name="dagger" format="1">
  <advance width="1110"/>
  <unicode hex="2020"/>
  <outline>
    <contour>
      <point x="438" y="1475" type="line"/>
      <point x="438" y="1097" type="line"/>
      <point x="141" y="1097" type="line"/>
      <point x="141" y="937" type="line"/>
      <point x="438" y="937" type="line"/>
      <point x="438" y="-6" type="line"/>
      <point x="664" y="-6" type="line"/>
      <point x="664" y="937" type="line"/>
      <point x="975" y="937" type="line"/>
      <point x="975" y="1097" type="line"/>
      <point x="667" y="1097" type="line"/>
      <point x="667" y="1475" type="line"/>
    </contour>
  </outline>
</glyph>
<glyph name="foursuperior" format="1">
  <advance width="845"/>
  <unicode hex="2074"/>
  <outline>
    <contour>
      <point x="481" y="589" type="line"/>
      <point x="634" y="589" type="line"/>
      <point x="634" y="772" type="line"/>
      <point x="741" y="772" type="line"/>
      <point x="747" y="901" type="line"/>
      <point x="634" y="901" type="line"/>
      <point x="634" y="1456" type="line"/>
      <point x="471" y="1456" type="line"/>
      <point x="98" y="899" type="line"/>
      <point x="98" y="772" type="line"/>
      <point x="481" y="772" type="line"/>
    </contour>
    <contour>
      <point x="266" y="901" type="line"/>
      <point x="481" y="1253" type="line"/>
      <point x="481" y="901" type="line"/>
    </contour>
  </outline>
</glyph>
<glyph name="uni2113" format="1">
  <advance width="1289"/>
  <unicode hex="2113"/>
  <outline>
    <contour>
      <point x="992" y="1514" type="curve" smooth="yes"/>
      <point x="1092" y="1514"/>
      <point x="1139" y="1453"/>
      <point x="1138" y="1364" type="curve" smooth="yes"/>
      <point x="1138" y="1253"/>
      <point x="1065" y="1108"/>
      <point x="879" y="966" type="curve" smooth="yes"/>
      <point x="652" y="794" type="line"/>
      <point x="678" y="761" type="line"/>
      <point x="824" y="1356" type="line" smooth="yes"/>
      <point x="852" y="1466"/>
      <point x="919" y="1514"/>
    </contour>
    <contour>
      <point x="1289" y="1365" type="curve" smooth="yes"/>
      <point x="1289" y="1585"/>
      <point x="1119" y="1697"/>
      <point x="945" y="1698" type="curve" smooth="yes"/>
      <point x="791" y="1699"/>
      <point x="634" y="1618"/>
      <point x="573" y="1396" type="curve" smooth="yes"/>
      <point x="353" y="585" type="line"/>
      <point x="413" y="685" type="line"/>
      <point x="73" y="433" type="line"/>
      <point x="125" y="334" type="line"/>
      <point x="368" y="507" type="line"/>
      <point x="337" y="532" type="line"/>
      <point x="227" y="154"/>
      <point x="354" y="-17"/>
      <point x="570" y="-20" type="curve" smooth="yes"/>
      <point x="828" y="-24"/>
      <point x="997" y="98"/>
      <point x="997" y="98" type="curve"/>
      <point x="970" y="261" type="line"/>
      <point x="867" y="213"/>
      <point x="771" y="180"/>
      <point x="693" y="182" type="curve" smooth="yes"/>
      <point x="590" y="184"/>
      <point x="553" y="254"/>
      <point x="594" y="417" type="curve" smooth="yes"/>
      <point x="668" y="719" type="line"/>
      <point x="604" y="611" type="line"/>
      <point x="940" y="865" type="line" smooth="yes"/>
      <point x="1190" y="1053"/>
      <point x="1289" y="1155"/>
    </contour>
  </outline>
</glyph>
<glyph name="trademark" format="1">
  <advance width="2120"/>
  <unicode hex="2122"/>
  <outline>
    <contour>
      <point x="919" y="536" type="line"/>
      <point x="1080" y="536" type="line"/>
      <point x="1082" y="1192" type="line"/>
      <point x="1353" y="593" type="line"/>
      <point x="1452" y="593" type="line"/>
      <point x="1724" y="1188" type="line"/>
      <point x="1727" y="536" type="line"/>
      <point x="1887" y="536" type="line"/>
      <point x="1878" y="1456" type="line"/>
      <point x="1703" y="1456" type="line"/>
      <point x="1403" y="828" type="line"/>
      <point x="1105" y="1456" type="line"/>
      <point x="927" y="1456" type="line"/>
    </contour>
    <contour>
      <point x="357" y="536" type="line"/>
      <point x="526" y="536" type="line"/>
      <point x="526" y="1308" type="line"/>
      <point x="800" y="1308" type="line"/>
      <point x="800" y="1456" type="line"/>
      <point x="83" y="1456" type="line"/>
      <point x="83" y="1308" type="line"/>
      <point x="357" y="1308" type="line"/>
    </contour>
  </outline>
</glyph>
<glyph name="radical" format="1">
  <advance width="1166"/>
  <unicode hex="221A"/>
  <outline>
    <contour>
      <point x="1024" y="1648" type="line"/>
      <point x="958" y="1369"/>
      <point x="671" y="358"/>
      <point x="605" y="79" type="curve"/>
      <point x="546" y="277" type="line"/>
      <point x="332" y="922" type="line"/>
      <point x="47" y="850" type="line"/>
      <point x="63" y="727" type="line"/>
      <point x="240" y="773" type="line"/>
      <point x="561" y="-165" type="line"/>
      <point x="699" y="-165" type="line"/>
      <point x="1177" y="1648" type="line"/>
    </contour>
  </outline>
</glyph>
<glyph name="approxequal" format="1">
  <advance width="1225"/>
  <unicode hex="2248"/>
  <outline>
    <contour>
      <point x="831" y="851" type="curve" smooth="yes"/>
      <point x="773" y="851"/>
      <point x="712" y="883"/>
      <point x="632" y="927" type="curve"/>
      <point x="552" y="970"/>
      <point x="463" y="1010"/>
      <point x="374" y="1010" type="curve" smooth="yes"/>
      <point x="219" y="1010"/>
      <point x="125" y="908"/>
      <point x="88" y="760" type="curve"/>
      <point x="193" y="678" type="line"/>
      <point x="225" y="772"/>
      <point x="278" y="840"/>
      <point x="371" y="840" type="curve" smooth="yes"/>
      <point x="433" y="840"/>
      <point x="487" y="813"/>
      <point x="551" y="775" type="curve" smooth="yes"/>
      <point x="656" y="716"/>
      <point x="732" y="682"/>
      <point x="821" y="682" type="curve" smooth="yes"/>
      <point x="984" y="682"/>
      <point x="1085" y="792"/>
      <point x="1122" y="931" type="curve"/>
      <point x="1024" y="1009" type="line"/>
      <point x="967" y="902"/>
      <point x="911" y="851"/>
    </contour>
    <contour>
      <point x="830" y="385" type="curve" smooth="yes"/>
      <point x="775" y="385"/>
      <point x="717" y="410"/>
      <point x="632" y="457" type="curve"/>
      <point x="548" y="503"/>
      <point x="462" y="541"/>
      <point x="375" y="541" type="curve" smooth="yes"/>
      <point x="220" y="541"/>
      <point x="125" y="439"/>
      <point x="86" y="293" type="curve"/>
      <point x="193" y="212" type="line"/>
      <point x="224" y="307"/>
      <point x="275" y="372"/>
      <point x="370" y="372" type="curve" smooth="yes"/>
      <point x="432" y="372"/>
      <point x="486" y="347"/>
      <point x="550" y="308" type="curve" smooth="yes"/>
      <point x="655" y="248"/>
      <point x="730" y="216"/>
      <point x="821" y="216" type="curve" smooth="yes"/>
      <point x="982" y="216"/>
      <point x="1084" y="323"/>
      <point x="1121" y="462" type="curve"/>
      <point x="1024" y="541" type="line"/>
      <point x="965" y="435"/>
      <point x="910" y="385"/>
    </contour>
  </outline>
</glyph>
<glyph name="onesuperior" format="1">
  <advance width="825"/>
  <outline>
    <contour>
      <point x="209" y="560" type="line"/>
      <point x="665" y="560" type="line"/>
      <point x="665" y="705" type="line"/>
      <point x="528" y="705" type="line"/>
      <point x="528" y="1456" type="line"/>
      <point x="391" y="1456" type="line"/>
      <point x="358" y="1431"/>
      <point x="237" y="1366"/>
      <point x="195" y="1346" type="curve"/>
      <point x="195" y="1199" type="line"/>
      <point x="209" y="1204"/>
      <point x="314" y="1254"/>
      <point x="351" y="1274" type="curve"/>
      <point x="351" y="705" type="line"/>
      <point x="209" y="705" type="line"/>
    </contour>
  </outline>
</glyph>
<glyph name="threesuperior" format="1">
  <advance width="854"/>
  <outline>
    <contour>
      <point x="412" y="584" type="curve" smooth="yes"/>
      <point x="578" y="584"/>
      <point x="728" y="670"/>
      <point x="728" y="852" type="curve" smooth="yes"/>
      <point x="728" y="948"/>
      <point x="672" y="1035"/>
      <point x="569" y="1060" type="curve"/>
      <point x="674" y="1082"/>
      <point x="708" y="1177"/>
      <point x="709" y="1252" type="curve" smooth="yes"/>
      <point x="709" y="1409"/>
      <point x="581" y="1475"/>
      <point x="437" y="1475" type="curve" smooth="yes"/>
      <point x="339" y="1475"/>
      <point x="236" y="1445"/>
      <point x="158" y="1392" type="curve"/>
      <point x="213" y="1282" type="line"/>
      <point x="283" y="1322"/>
      <point x="356" y="1342"/>
      <point x="415" y="1342" type="curve" smooth="yes"/>
      <point x="495" y="1342"/>
      <point x="553" y="1307"/>
      <point x="553" y="1231" type="curve" smooth="yes"/>
      <point x="553" y="1161"/>
      <point x="516" y="1119"/>
      <point x="401" y="1119" type="curve" smooth="yes"/>
      <point x="293" y="1119" type="line"/>
      <point x="293" y="988" type="line"/>
      <point x="401" y="989" type="line" smooth="yes"/>
      <point x="521" y="990"/>
      <point x="573" y="940"/>
      <point x="573" y="854" type="curve" smooth="yes"/>
      <point x="573" y="758"/>
      <point x="498" y="718"/>
      <point x="409" y="718" type="curve" smooth="yes"/>
      <point x="341" y="718"/>
      <point x="265" y="742"/>
      <point x="208" y="781" type="curve"/>
      <point x="154" y="657" type="line"/>
      <point x="230" y="609"/>
      <point x="324" y="584"/>
    </contour>
  </outline>
</glyph>
<glyph name="twosuperior" format="1">
  <advance width="852"/>
  <outline>
    <contour>
      <point x="161" y="597" type="line"/>
      <point x="703" y="597" type="line"/>
      <point x="716" y="736" type="line"/>
      <point x="393" y="736" type="line"/>
      <point x="460" y="795"/>
      <point x="512" y="839"/>
      <point x="564" y="891" type="curve" smooth="yes"/>
      <point x="659" y="985"/>
      <point x="720" y="1078"/>
      <point x="720" y="1203" type="curve" smooth="yes"/>
      <point x="720" y="1379"/>
      <point x="581" y="1476"/>
      <point x="437" y="1476" type="curve" smooth="yes"/>
      <point x="316" y="1476"/>
      <point x="206" y="1427"/>
      <point x="147" y="1334" type="curve"/>
      <point x="225" y="1225" type="line"/>
      <point x="274" y="1294"/>
      <point x="353" y="1327"/>
      <point x="426" y="1327" type="curve" smooth="yes"/>
      <point x="491" y="1327"/>
      <point x="556" y="1282"/>
      <point x="556" y="1197" type="curve" smooth="yes"/>
      <point x="556" y="1145"/>
      <point x="505" y="1073"/>
      <point x="442" y="1003" type="curve" smooth="yes"/>
      <point x="337" y="887"/>
      <point x="207" y="781"/>
      <point x="161" y="733" type="curve"/>
    </contour>
  </outline>
</glyph>
